# xmcd CD database file
#
# Track frame offsets:
#	150
#	20702
#	39987
#	54362
#	71310
#	95055
#	116060
#	136367
#	158690
#
# Disc length: 2423 seconds
#
# Revision: 1
# Processed by: cddbd v1.4PL0 Copyright (c) Steve Scherf et al.
# Submitted via: NotifyCDPlayer 1.60beta13
#
DISCID=73097509
DTITLE=John Lee Hooker - I Feel Good
DYEAR=1970
DGENRE=
TTITLE0=Baby Baby
TTITLE1=I Feel Good
TTITLE2=Going Home
TTITLE3=We Are Cooking
TTITLE4=Roll And Tumble
TTITLE5=Looking Back Over My Day
TTITLE6=Dazie Mae
TTITLE7=Call In The Night
TTITLE8=Baby Don't Do Me Wrong
EXTD=YEAR: 1970
EXTT0=
EXTT1=
EXTT2=
EXTT3=
EXTT4=
EXTT5=
EXTT6=
EXTT7=
EXTT8=
PLAYORDER=
